<?xml version="1.0" encoding="UTF-8"?><svg xmlns="http://www.w3.org/2000/svg" xmlns:xlink="http://www.w3.org/1999/xlink" fill-opacity="1" color-rendering="auto" color-interpolation="auto" text-rendering="auto" stroke="black" stroke-linecap="square" width="1497" stroke-miterlimit="10" shape-rendering="auto" stroke-opacity="1" fill="black" stroke-dasharray="none" font-weight="normal" stroke-width="1" height="570" font-family="'Dialog'" font-style="normal" stroke-linejoin="miter" font-size="12px" stroke-dashoffset="0" image-rendering="auto">
  <!--Generated by ySVG 2.5-->
  <defs id="genericDefs"/>
  <g>
    <defs id="defs1">
      <clipPath clipPathUnits="userSpaceOnUse" id="clipPath1">
        <path d="M0 0 L1497 0 L1497 570 L0 570 L0 0 Z"/>
      </clipPath>
      <clipPath clipPathUnits="userSpaceOnUse" id="clipPath2">
        <path d="M524 207 L2021 207 L2021 777 L524 777 L524 207 Z"/>
      </clipPath>
    </defs>
    <g fill="white" text-rendering="geometricPrecision" shape-rendering="geometricPrecision" transform="translate(-524,-207)" stroke="white">
      <rect x="524" width="1497" height="570" y="207" clip-path="url(#clipPath2)" stroke="none"/>
    </g>
    <g fill="yellow" text-rendering="geometricPrecision" shape-rendering="geometricPrecision" transform="matrix(1,0,0,1,-524,-207)" stroke="yellow">
      <rect x="1215.546" y="405.6367" clip-path="url(#clipPath2)" width="126.095" rx="4" ry="4" height="44" stroke="none"/>
    </g>
    <g font-size="16px" stroke-linecap="butt" transform="matrix(1,0,0,1,-524,-207)" text-rendering="geometricPrecision" font-family="sans-serif" shape-rendering="geometricPrecision" stroke-miterlimit="1.45">
      <text x="1225.6833" xml:space="preserve" y="433.9219" clip-path="url(#clipPath2)" stroke="none">vir:IC19_Recto</text>
      <rect x="1215.546" y="405.6367" clip-path="url(#clipPath2)" fill="none" width="126.095" rx="4" ry="4" height="44"/>
    </g>
    <g fill="yellow" text-rendering="geometricPrecision" shape-rendering="geometricPrecision" transform="matrix(1,0,0,1,-524,-207)" stroke="yellow">
      <rect x="1879.9019" y="405.6367" clip-path="url(#clipPath2)" width="126.095" rx="4" ry="4" height="44" stroke="none"/>
    </g>
    <g font-size="16px" stroke-linecap="butt" transform="matrix(1,0,0,1,-524,-207)" text-rendering="geometricPrecision" font-family="sans-serif" shape-rendering="geometricPrecision" stroke-miterlimit="1.45">
      <text x="1890.0392" xml:space="preserve" y="433.9219" clip-path="url(#clipPath2)" stroke="none">vir:IC20_Verso</text>
      <rect x="1879.9019" y="405.6367" clip-path="url(#clipPath2)" fill="none" width="126.095" rx="4" ry="4" height="44"/>
    </g>
    <g fill="yellow" text-rendering="geometricPrecision" shape-rendering="geometricPrecision" transform="matrix(1,0,0,1,-524,-207)" stroke="yellow">
      <rect x="1479.5136" y="582.1375" clip-path="url(#clipPath2)" width="227.3704" rx="4" ry="4" height="44" stroke="none"/>
    </g>
    <g font-size="16px" stroke-linecap="butt" transform="matrix(1,0,0,1,-524,-207)" text-rendering="geometricPrecision" font-family="sans-serif" shape-rendering="geometricPrecision" stroke-miterlimit="1.45">
      <text x="1488.7067" xml:space="preserve" y="610.4227" clip-path="url(#clipPath2)" stroke="none">crm:E25_Man-Made_Feature</text>
      <rect x="1479.5136" y="582.1375" clip-path="url(#clipPath2)" fill="none" width="227.3704" rx="4" ry="4" height="44"/>
    </g>
    <g fill="yellow" text-rendering="geometricPrecision" shape-rendering="geometricPrecision" transform="matrix(1,0,0,1,-524,-207)" stroke="yellow">
      <rect x="1488.7683" y="290.6692" clip-path="url(#clipPath2)" width="227.3704" rx="4" ry="4" height="44" stroke="none"/>
    </g>
    <g font-size="16px" stroke-linecap="butt" transform="matrix(1,0,0,1,-524,-207)" text-rendering="geometricPrecision" font-family="sans-serif" shape-rendering="geometricPrecision" stroke-miterlimit="1.45">
      <text x="1502.4105" xml:space="preserve" y="318.9544" clip-path="url(#clipPath2)" stroke="none">crm:E22_Man-Made_Object</text>
      <rect x="1488.7683" y="290.6692" clip-path="url(#clipPath2)" fill="none" width="227.3704" rx="4" ry="4" height="44"/>
    </g>
    <g fill="yellow" text-rendering="geometricPrecision" shape-rendering="geometricPrecision" transform="matrix(1,0,0,1,-524,-207)" stroke="yellow">
      <rect x="1479.5136" y="717.9613" clip-path="url(#clipPath2)" width="227.3704" rx="4" ry="4" height="44" stroke="none"/>
    </g>
    <g font-size="16px" stroke-linecap="butt" transform="matrix(1,0,0,1,-524,-207)" text-rendering="geometricPrecision" font-family="sans-serif" shape-rendering="geometricPrecision" stroke-miterlimit="1.45">
      <text x="1490.4801" xml:space="preserve" y="746.2465" clip-path="url(#clipPath2)" stroke="none">vir:IC1_Iconographical_Atom</text>
      <rect x="1479.5136" y="717.9613" clip-path="url(#clipPath2)" fill="none" width="227.3704" rx="4" ry="4" height="44"/>
    </g>
    <g fill="rgb(204,255,204)" text-rendering="geometricPrecision" shape-rendering="geometricPrecision" transform="matrix(1,0,0,1,-524,-207)" stroke="rgb(204,255,204)">
      <path d="M1842.6764 222.0881 L1956.1619 222.0881 L1943.5524 265.0881 L1830.0669 265.0881 Z" fill-rule="evenodd" clip-path="url(#clipPath2)" stroke="none"/>
    </g>
    <g font-size="16px" stroke-linecap="butt" transform="matrix(1,0,0,1,-524,-207)" text-rendering="geometricPrecision" font-family="sans-serif" shape-rendering="geometricPrecision" stroke-miterlimit="1.45">
      <text x="1857.5441" xml:space="preserve" y="249.8733" clip-path="url(#clipPath2)" stroke="none">xsd:String</text>
      <path fill="none" d="M1842.6764 222.0881 L1956.1619 222.0881 L1943.5524 265.0881 L1830.0669 265.0881 Z" fill-rule="evenodd" clip-path="url(#clipPath2)"/>
    </g>
    <g fill="rgb(204,255,204)" text-rendering="geometricPrecision" shape-rendering="geometricPrecision" transform="matrix(1,0,0,1,-524,-207)" stroke="rgb(204,255,204)">
      <path d="M1842.6764 631.6686 L1956.1619 631.6686 L1943.5524 674.6686 L1830.0669 674.6686 Z" fill-rule="evenodd" clip-path="url(#clipPath2)" stroke="none"/>
    </g>
    <g font-size="16px" stroke-linecap="butt" transform="matrix(1,0,0,1,-524,-207)" text-rendering="geometricPrecision" font-family="sans-serif" shape-rendering="geometricPrecision" stroke-miterlimit="1.45">
      <text x="1857.5441" xml:space="preserve" y="659.4537" clip-path="url(#clipPath2)" stroke="none">xsd:String</text>
      <path fill="none" d="M1842.6764 631.6686 L1956.1619 631.6686 L1943.5524 674.6686 L1830.0669 674.6686 Z" fill-rule="evenodd" clip-path="url(#clipPath2)"/>
    </g>
    <g fill="yellow" text-rendering="geometricPrecision" shape-rendering="geometricPrecision" transform="matrix(1,0,0,1,-524,-207)" stroke="yellow">
      <rect x="644.8814" y="462.6899" clip-path="url(#clipPath2)" width="152.4263" rx="4" ry="4" height="44" stroke="none"/>
    </g>
    <g font-size="16px" stroke-linecap="butt" transform="matrix(1,0,0,1,-524,-207)" text-rendering="geometricPrecision" font-family="sans-serif" shape-rendering="geometricPrecision" stroke-miterlimit="1.45">
      <text x="661.9501" xml:space="preserve" y="490.9751" clip-path="url(#clipPath2)" stroke="none">fabio:Expression</text>
      <rect x="644.8814" y="462.6899" clip-path="url(#clipPath2)" fill="none" width="152.4263" rx="4" ry="4" height="44"/>
    </g>
    <g fill="yellow" text-rendering="geometricPrecision" shape-rendering="geometricPrecision" transform="matrix(1,0,0,1,-524,-207)" stroke="yellow">
      <rect x="563.0829" y="347.1467" clip-path="url(#clipPath2)" width="81.9682" rx="4" ry="4" height="44" stroke="none"/>
    </g>
    <g font-size="16px" stroke-linecap="butt" transform="matrix(1,0,0,1,-524,-207)" text-rendering="geometricPrecision" font-family="sans-serif" shape-rendering="geometricPrecision" stroke-miterlimit="1.45">
      <text x="567.5943" xml:space="preserve" y="375.4319" clip-path="url(#clipPath2)" stroke="none">foaf:Agent</text>
      <rect x="563.0829" y="347.1467" clip-path="url(#clipPath2)" fill="none" width="81.9682" rx="4" ry="4" height="44"/>
    </g>
    <g fill="yellow" text-rendering="geometricPrecision" shape-rendering="geometricPrecision" transform="matrix(1,0,0,1,-524,-207)" stroke="yellow">
      <rect x="959.2357" y="347.1467" clip-path="url(#clipPath2)" width="81.9682" rx="4" ry="4" height="44" stroke="none"/>
    </g>
    <g font-size="16px" stroke-linecap="butt" transform="matrix(1,0,0,1,-524,-207)" text-rendering="geometricPrecision" font-family="sans-serif" shape-rendering="geometricPrecision" stroke-miterlimit="1.45">
      <text x="963.7628" xml:space="preserve" y="375.4319" clip-path="url(#clipPath2)" stroke="none">frbr:Place </text>
      <rect x="959.2357" y="347.1467" clip-path="url(#clipPath2)" fill="none" width="81.9682" rx="4" ry="4" height="44"/>
    </g>
    <g fill="rgb(204,255,204)" text-rendering="geometricPrecision" shape-rendering="geometricPrecision" transform="matrix(1,0,0,1,-524,-207)" stroke="rgb(204,255,204)">
      <path d="M959.7818 573.366 L1050.7673 573.366 L1040.6578 616.366 L949.6723 616.366 Z" fill-rule="evenodd" clip-path="url(#clipPath2)" stroke="none"/>
    </g>
    <g font-size="16px" stroke-linecap="butt" transform="matrix(1,0,0,1,-524,-207)" text-rendering="geometricPrecision" font-family="sans-serif" shape-rendering="geometricPrecision" stroke-miterlimit="1.45">
      <text x="961.9776" xml:space="preserve" y="601.1511" clip-path="url(#clipPath2)" stroke="none">xsd:gYear </text>
      <path fill="none" d="M959.7818 573.366 L1050.7673 573.366 L1040.6578 616.366 L949.6723 616.366 Z" fill-rule="evenodd" clip-path="url(#clipPath2)"/>
    </g>
    <g fill="rgb(204,255,204)" text-rendering="geometricPrecision" shape-rendering="geometricPrecision" transform="matrix(1,0,0,1,-524,-207)" stroke="rgb(204,255,204)">
      <path d="M959.7818 456.4741 L1050.7673 456.4741 L1040.6578 499.4741 L949.6723 499.4741 Z" fill-rule="evenodd" clip-path="url(#clipPath2)" stroke="none"/>
    </g>
    <g font-size="16px" stroke-linecap="butt" transform="matrix(1,0,0,1,-524,-207)" text-rendering="geometricPrecision" font-family="sans-serif" shape-rendering="geometricPrecision" stroke-miterlimit="1.45">
      <text x="964.6495" xml:space="preserve" y="484.2593" clip-path="url(#clipPath2)" stroke="none">xsd:String</text>
      <path fill="none" d="M959.7818 456.4741 L1050.7673 456.4741 L1040.6578 499.4741 L949.6723 499.4741 Z" fill-rule="evenodd" clip-path="url(#clipPath2)"/>
    </g>
    <g fill="yellow" text-rendering="geometricPrecision" shape-rendering="geometricPrecision" transform="matrix(1,0,0,1,-524,-207)" stroke="yellow">
      <rect x="539.8202" y="624.3871" clip-path="url(#clipPath2)" width="158.4992" rx="4" ry="4" height="44" stroke="none"/>
    </g>
    <g font-size="16px" stroke-linecap="butt" transform="matrix(1,0,0,1,-524,-207)" text-rendering="geometricPrecision" font-family="sans-serif" shape-rendering="geometricPrecision" stroke-miterlimit="1.45">
      <text x="551.9175" xml:space="preserve" y="652.6722" clip-path="url(#clipPath2)" stroke="none">fabio:Manifestation</text>
      <rect x="539.8202" y="624.3871" clip-path="url(#clipPath2)" fill="none" width="158.4992" rx="4" ry="4" height="44"/>
    </g>
    <g stroke-linecap="butt" transform="matrix(1,0,0,1,-524,-207)" fill="navy" text-rendering="geometricPrecision" shape-rendering="geometricPrecision" stroke="navy" stroke-miterlimit="1.45">
      <path fill="none" d="M1318.8741 403.6046 L1364.4407 376.4188 L1866.4178 376.4188 L1900.9604 399.536" clip-path="url(#clipPath2)"/>
      <path d="M1312.0038 407.7033 C1310.8719 405.8062 1311.4924 403.3507 1313.3896 402.2188 C1315.2867 401.087 1317.7423 401.7074 1318.8741 403.6046 C1320.006 405.5017 1319.3855 407.9572 1317.4883 409.0891 C1315.5912 410.2209 1313.1356 409.6005 1312.0038 407.7033 Z" clip-path="url(#clipPath2)" stroke="none"/>
      <path d="M1910.1022 405.654 L1903.4666 393.9935 L1896.7924 403.9662 Z" clip-path="url(#clipPath2)" stroke="none"/>
      <rect x="1553.398" y="364.618" clip-path="url(#clipPath2)" fill="white" width="124.0625" height="23.6016" stroke="none"/>
      <text x="1555.3979" font-size="16px" y="382.7039" clip-path="url(#clipPath2)" font-family="sans-serif" stroke="none" xml:space="preserve">vir:K6i_has_front</text>
      <path fill="none" d="M1899.8794 451.5727 L1866.4178 470.1688 L1364.4407 470.1688 L1332.8408 454.5129" clip-path="url(#clipPath2)"/>
      <path d="M1906.8721 447.6866 C1907.9452 449.6175 1907.2498 452.0528 1905.3188 453.126 C1903.3878 454.1991 1900.9525 453.5037 1899.8794 451.5727 C1898.8063 449.6417 1899.5017 447.2064 1901.4326 446.1332 C1903.3636 445.0601 1905.799 445.7556 1906.8721 447.6866 Z" clip-path="url(#clipPath2)" stroke="none"/>
      <path d="M1322.9841 449.6296 L1331.0732 460.3332 L1336.4004 449.5805 Z" clip-path="url(#clipPath2)" stroke="none"/>
      <rect x="1554.2847" y="458.368" clip-path="url(#clipPath2)" fill="white" width="122.2891" height="23.6016" stroke="none"/>
      <text x="1556.2847" font-size="16px" y="476.4539" clip-path="url(#clipPath2)" font-family="sans-serif" stroke="none" xml:space="preserve">vir:K6_has_back</text>
      <path fill="none" d="M1278.5935 453.6562 L1278.5935 604.1375 L1468.4846 604.1375" clip-path="url(#clipPath2)"/>
      <path d="M1278.5935 445.6562 C1280.8026 445.6562 1282.5935 447.4471 1282.5935 449.6562 C1282.5935 451.8654 1280.8026 453.6562 1278.5935 453.6562 C1276.3844 453.6562 1274.5935 451.8654 1274.5935 449.6562 C1274.5935 447.4471 1276.3844 445.6562 1278.5935 445.6562 Z" clip-path="url(#clipPath2)" stroke="none"/>
      <path d="M1479.4846 604.1375 L1467.4846 598.1375 L1467.4846 610.1375 Z" clip-path="url(#clipPath2)" stroke="none"/>
      <rect x="1288.8895" y="592.3367" clip-path="url(#clipPath2)" fill="white" width="171.2031" height="23.6016" stroke="none"/>
      <text x="1290.8895" font-size="16px" y="610.4227" clip-path="url(#clipPath2)" font-family="sans-serif" stroke="none" xml:space="preserve">crm:P56_bears_feature</text>
      <path fill="none" d="M1942.9493 453.6562 L1942.9493 604.1375 L1717.8933 604.1375" clip-path="url(#clipPath2)"/>
      <path d="M1942.9493 445.6562 C1945.1584 445.6562 1946.9493 447.4471 1946.9493 449.6562 C1946.9493 451.8654 1945.1584 453.6562 1942.9493 453.6562 C1940.7402 453.6562 1938.9493 451.8654 1938.9493 449.6562 C1938.9493 447.4471 1940.7402 445.6562 1942.9493 445.6562 Z" clip-path="url(#clipPath2)" stroke="none"/>
      <path d="M1706.8933 604.1375 L1718.8933 610.1375 L1718.8933 598.1375 Z" clip-path="url(#clipPath2)" stroke="none"/>
      <rect x="1743.8776" y="592.3367" clip-path="url(#clipPath2)" fill="white" width="171.2031" height="23.6016" stroke="none"/>
      <text x="1745.8777" font-size="16px" y="610.4227" clip-path="url(#clipPath2)" font-family="sans-serif" stroke="none" xml:space="preserve">crm:P56_bears_feature</text>
      <path fill="none" d="M1645.2753 578.5726 L1645.3168 578.4816 L1646.7368 574.3005 L1647.7333 569.9771 L1648.2782 565.6583 L1648.3867 561.3712 L1648.0736 557.1426 L1647.3541 552.9995 L1646.243 548.9688 L1644.7555 545.0773 L1642.9065 541.3521 L1640.7109 537.8199 L1638.184 534.5078 L1635.3403 531.4426 L1632.1953 528.6513 L1628.7637 526.1607 L1625.0607 523.9977 L1621.1011 522.1894 L1616.8999 520.7625 L1612.5764 519.7661 L1608.2577 519.2211 L1603.9706 519.1127 L1599.7419 519.4257 L1595.5989 520.1453 L1591.5681 521.2563 L1587.6768 522.7438 L1583.9514 524.5929 L1580.4193 526.7884 L1577.1072 529.3154 L1574.042 532.159 L1571.2506 535.3041 L1568.76 538.7357 L1566.5972 542.4387 L1564.7887 546.3983 L1563.3618 550.5994 L1562.3655 554.9229 L1561.8206 559.2417 L1561.712 563.5288 L1562.0251 567.7574 L1562.7245 571.7844 L1562.7588 571.8784" clip-path="url(#clipPath2)"/>
      <path d="M1641.9557 585.8514 C1639.9457 584.9347 1639.0594 582.5622 1639.9761 580.5522 C1640.8927 578.5422 1643.2653 577.6559 1645.2753 578.5726 C1647.2853 579.4893 1648.1715 581.8618 1647.2549 583.8717 C1646.3383 585.8817 1643.9657 586.768 1641.9557 585.8514 Z" clip-path="url(#clipPath2)" stroke="none"/>
      <path d="M1566.5187 582.2158 L1568.0555 568.8878 L1556.7783 572.9894 Z" clip-path="url(#clipPath2)" stroke="none"/>
      <rect x="1523.8717" y="535.0867" clip-path="url(#clipPath2)" fill="white" width="171.2031" height="23.6016" stroke="none"/>
      <text x="1525.8717" font-size="16px" y="553.1727" clip-path="url(#clipPath2)" font-family="sans-serif" stroke="none" xml:space="preserve">crm:P56_bears_feature</text>
      <path fill="none" d="M1641.4119 287.1921 L1641.4637 287.1067 L1641.6726 286.6731 L1643.104 282.7625 L1644.1528 278.6833 L1644.7979 274.4572 L1645.0176 270.1052 L1644.7979 265.7533 L1644.1528 261.5271 L1643.104 257.448 L1641.6727 253.5374 L1639.8804 249.8167 L1637.7483 246.3073 L1635.298 243.0305 L1632.5509 240.0079 L1629.5282 237.2608 L1626.2515 234.8105 L1622.7421 232.6784 L1619.0214 230.8861 L1615.1108 229.4548 L1611.0317 228.4059 L1606.8055 227.7609 L1602.4536 227.5412 L1598.1017 227.7609 L1593.8755 228.4059 L1589.7964 229.4548 L1585.8857 230.8861 L1582.165 232.6784 L1578.6556 234.8104 L1575.3789 237.2607 L1572.3562 240.0079 L1569.6091 243.0305 L1567.1588 246.3072 L1565.0267 249.8166 L1563.2344 253.5373 L1561.8031 257.4479 L1560.7543 261.527 L1560.1093 265.7532 L1559.8895 270.1052 L1560.1093 274.4571 L1560.7543 278.6833 L1561.2083 280.449 L1561.2477 280.5409" clip-path="url(#clipPath2)"/>
      <path d="M1637.8945 294.3774 C1635.9104 293.4062 1635.0892 291.0103 1636.0605 289.0262 C1637.0317 287.042 1639.4276 286.2208 1641.4119 287.1921 C1643.396 288.1634 1644.2172 290.5592 1643.2458 292.5434 C1642.2747 294.5276 1639.8788 295.3487 1637.8945 294.3774 Z" clip-path="url(#clipPath2)" stroke="none"/>
      <path d="M1565.2463 290.7884 L1566.4738 277.4283 L1555.2947 281.7904 Z" clip-path="url(#clipPath2)" stroke="none"/>
      <rect x="1507.9613" y="242.7419" clip-path="url(#clipPath2)" fill="white" width="188.9844" height="23.6016" stroke="none"/>
      <text x="1509.9613" font-size="16px" y="260.8279" clip-path="url(#clipPath2)" font-family="sans-serif" stroke="none" xml:space="preserve">crm:P46_is_composed_of</text>
      <path fill="none" d="M1484.7493 317.9492 L1278.5935 317.9492 L1278.5935 394.651" clip-path="url(#clipPath2)"/>
      <path d="M1492.7493 317.9492 C1492.7493 320.1584 1490.9584 321.9492 1488.7493 321.9492 C1486.5402 321.9492 1484.7493 320.1584 1484.7493 317.9492 C1484.7493 315.7401 1486.5402 313.9492 1488.7493 313.9492 C1490.9584 313.9492 1492.7493 315.7401 1492.7493 317.9492 Z" clip-path="url(#clipPath2)" stroke="none"/>
      <path d="M1278.5935 405.651 L1284.5935 393.651 L1272.5935 393.651 Z" clip-path="url(#clipPath2)" stroke="none"/>
      <rect x="1293.5169" y="306.1484" clip-path="url(#clipPath2)" fill="white" width="171.2031" height="23.6016" stroke="none"/>
      <text x="1295.5168" font-size="16px" y="324.2344" clip-path="url(#clipPath2)" font-family="sans-serif" stroke="none" xml:space="preserve">crm:P56_bears_feature</text>
      <path fill="none" d="M1720.1642 313.9749 L1942.9493 317.9492 L1942.9493 394.651" clip-path="url(#clipPath2)"/>
      <path d="M1712.1654 313.8322 C1712.2048 311.6234 1714.0273 309.8647 1716.2361 309.9041 C1718.4449 309.9435 1720.2036 311.7661 1720.1642 313.9749 C1720.1248 316.1837 1718.3022 317.9423 1716.0935 317.9029 C1713.8846 317.8635 1712.126 316.041 1712.1654 313.8322 Z" clip-path="url(#clipPath2)" stroke="none"/>
      <path d="M1942.9493 405.651 L1948.9493 393.651 L1936.9493 393.651 Z" clip-path="url(#clipPath2)" stroke="none"/>
      <rect x="1748.505" y="304.2067" clip-path="url(#clipPath2)" fill="white" width="171.2031" height="23.6016" stroke="none"/>
      <text x="1750.505" font-size="16px" y="322.2927" clip-path="url(#clipPath2)" font-family="sans-serif" stroke="none" xml:space="preserve">crm:P56_bears_feature</text>
      <path fill="none" d="M1485.2635 302.4687 L1415.4427 263.1945 L1169.1736 263.1945 L1169.1736 672.9564 L1431.2532 672.9564 L1531.3203 630.4327" clip-path="url(#clipPath2)"/>
      <path d="M1492.2362 306.3908 C1491.1531 308.3163 1488.7142 308.9991 1486.7888 307.9161 C1484.8634 306.833 1484.1805 304.3941 1485.2635 302.4687 C1486.3467 300.5433 1488.7855 299.8604 1490.7109 300.9435 C1492.6364 302.0266 1493.3192 304.4654 1492.2362 306.3908 Z" clip-path="url(#clipPath2)" stroke="none"/>
      <path d="M1541.4441 626.1306 L1528.0533 625.3017 L1532.7465 636.3459 Z" clip-path="url(#clipPath2)" stroke="none"/>
      <rect x="1074.6814" y="456.2747" clip-path="url(#clipPath2)" fill="white" width="188.9844" height="23.6016" stroke="none"/>
      <text x="1076.6814" font-size="16px" y="474.3606" clip-path="url(#clipPath2)" font-family="sans-serif" stroke="none" xml:space="preserve">crm:P46_is_composed_of</text>
      <path fill="none" d="M1593.1989 717.9762 L1593.1989 634.1215" clip-path="url(#clipPath2)" stroke="black"/>
      <path fill="black" d="M1593.1989 626.1215 L1588.1989 638.1215 L1593.1989 635.1215 L1598.1989 638.1215 Z" clip-path="url(#clipPath2)" stroke="none"/>
      <rect x="1534.2926" y="660.2486" clip-path="url(#clipPath2)" fill="white" width="117.8125" height="23.6016" stroke="none"/>
    </g>
    <g font-size="16px" stroke-linecap="butt" transform="matrix(1,0,0,1,-524,-207)" text-rendering="geometricPrecision" font-family="sans-serif" shape-rendering="geometricPrecision" stroke-miterlimit="1.45">
      <text x="1536.2926" xml:space="preserve" y="678.3346" clip-path="url(#clipPath2)" stroke="none">rdfs:subClassOf</text>
    </g>
    <g stroke-linecap="butt" transform="matrix(1,0,0,1,-524,-207)" fill="green" text-rendering="geometricPrecision" shape-rendering="geometricPrecision" stroke="green" stroke-miterlimit="1.45">
      <path fill="none" d="M1698.9152 289.7433 L1817.5364 261.5507" clip-path="url(#clipPath2)"/>
    </g>
    <g stroke-linecap="butt" transform="matrix(1,0,0,1,-524,-207)" fill-opacity="0" fill="rgb(0,0,0)" text-rendering="geometricPrecision" shape-rendering="geometricPrecision" stroke="rgb(0,0,0)" stroke-opacity="0" stroke-miterlimit="1.45">
      <path d="M1691.132 291.5931 C1690.6211 289.4438 1691.9493 287.2874 1694.0986 286.7766 C1696.2479 286.2658 1698.4043 287.594 1698.9152 289.7433 C1699.426 291.8925 1698.0978 294.049 1695.9485 294.5598 C1693.7992 295.0706 1691.6428 293.7424 1691.132 291.5931 Z" stroke="none" clip-path="url(#clipPath2)"/>
    </g>
    <g stroke-linecap="butt" transform="matrix(1,0,0,1,-524,-207)" fill="green" text-rendering="geometricPrecision" shape-rendering="geometricPrecision" stroke="green" stroke-miterlimit="1.45">
      <path fill="none" d="M1691.132 291.5931 C1690.6211 289.4438 1691.9493 287.2874 1694.0986 286.7766 C1696.2479 286.2658 1698.4043 287.594 1698.9152 289.7433 C1699.426 291.8925 1698.0978 294.049 1695.9485 294.5598 C1693.7992 295.0706 1691.6428 293.7424 1691.132 291.5931 Z" clip-path="url(#clipPath2)"/>
      <path fill="white" d="M1832.1299 258.0822 L1815.1761 255.9445 L1817.9508 267.6193 Z" clip-path="url(#clipPath2)" stroke="none"/>
      <path fill="none" d="M1832.1299 258.0822 L1815.1761 255.9445 L1817.9508 267.6193 Z" clip-path="url(#clipPath2)"/>
      <rect x="1727.9817" y="260.3104" clip-path="url(#clipPath2)" fill="white" width="90.2422" height="23.6016" stroke="none"/>
      <text x="1729.9817" font-size="16px" y="278.3963" clip-path="url(#clipPath2)" font-family="sans-serif" stroke="none" xml:space="preserve">dcterms:title</text>
      <path fill="none" d="M1642.4125 627.8644 L1694.8977 653.1686 L1821.3497 653.1686" clip-path="url(#clipPath2)"/>
    </g>
    <g stroke-linecap="butt" transform="matrix(1,0,0,1,-524,-207)" fill-opacity="0" fill="rgb(0,0,0)" text-rendering="geometricPrecision" shape-rendering="geometricPrecision" stroke="rgb(0,0,0)" stroke-opacity="0" stroke-miterlimit="1.45">
      <path d="M1635.2062 624.39 C1636.1656 622.4001 1638.5565 621.5647 1640.5465 622.5241 C1642.5364 623.4835 1643.3718 625.8744 1642.4125 627.8644 C1641.453 629.8543 1639.0621 630.6897 1637.0721 629.7303 C1635.0823 628.7709 1634.2468 626.38 1635.2062 624.39 Z" stroke="none" clip-path="url(#clipPath2)"/>
    </g>
    <g stroke-linecap="butt" transform="matrix(1,0,0,1,-524,-207)" fill="green" text-rendering="geometricPrecision" shape-rendering="geometricPrecision" stroke="green" stroke-miterlimit="1.45">
      <path fill="none" d="M1635.2062 624.39 C1636.1656 622.4001 1638.5565 621.5647 1640.5465 622.5241 C1642.5364 623.4835 1643.3718 625.8744 1642.4125 627.8644 C1641.453 629.8543 1639.0621 630.6897 1637.0721 629.7303 C1635.0823 628.7709 1634.2468 626.38 1635.2062 624.39 Z" clip-path="url(#clipPath2)"/>
      <path fill="white" d="M1836.3497 653.1686 L1820.3497 647.1686 L1820.3497 659.1686 Z" clip-path="url(#clipPath2)" stroke="none"/>
      <path fill="none" d="M1836.3497 653.1686 L1820.3497 647.1686 L1820.3497 659.1686 Z" clip-path="url(#clipPath2)"/>
      <rect x="1712.7987" y="641.3678" clip-path="url(#clipPath2)" fill="white" width="90.2422" height="23.6016" stroke="none"/>
      <text x="1714.7987" font-size="16px" y="659.4537" clip-path="url(#clipPath2)" font-family="sans-serif" stroke="none" xml:space="preserve">dcterms:title</text>
      <path fill="none" d="M685.8917 510.3508 L685.8483 510.4409 L685.7581 510.6873 L684.8463 514.2332 L684.2856 517.9069 L684.0946 521.6899 L684.2856 525.473 L684.8463 529.1468 L685.7581 532.6926 L687.0023 536.092 L688.5603 539.3264 L690.4136 542.377 L692.5436 545.2254 L694.9317 547.8529 L697.5592 550.241 L700.4076 552.3709 L703.4583 554.2242 L706.6926 555.7823 L710.092 557.0265 L713.6378 557.9382 L717.3116 558.4989 L721.0946 558.6899 L724.8777 558.4989 L728.5515 557.9382 L732.0973 557.0265 L735.4967 555.7823 L738.731 554.2242 L741.7817 552.3709 L744.6301 550.2409 L747.2576 547.8528 L749.6456 545.2253 L751.7756 542.377 L753.6289 539.3263 L755.187 536.092 L756.4312 532.6926 L757.3429 529.1467 L757.9036 525.473 L758.0946 521.6899 L757.9036 517.9069 L757.8134 517.3157 L757.7825 517.2206" clip-path="url(#clipPath2)" stroke="navy"/>
      <path fill="navy" d="M688.7438 502.8765 C690.8078 503.6641 691.8425 505.9757 691.0549 508.0397 C690.2673 510.1037 687.9556 511.1384 685.8917 510.3508 C683.8277 509.5631 682.793 507.2515 683.5806 505.1875 C684.3682 503.1236 686.6799 502.0889 688.7438 502.8765 Z" clip-path="url(#clipPath2)" stroke="none"/>
      <path fill="navy" d="M754.8806 506.6103 L752.2589 519.768 L763.8338 516.6023 Z" clip-path="url(#clipPath2)" stroke="none"/>
      <rect x="682.6415" y="525.4517" clip-path="url(#clipPath2)" fill="white" width="76.9062" height="23.6016" stroke="none"/>
    </g>
    <g stroke-linecap="butt" font-size="16px" transform="matrix(1,0,0,1,-524,-207)" fill="navy" text-rendering="geometricPrecision" font-family="sans-serif" shape-rendering="geometricPrecision" stroke="navy" stroke-miterlimit="1.45">
      <text x="684.6415" xml:space="preserve" y="543.5376" clip-path="url(#clipPath2)" stroke="none">frbr:partOf</text>
      <path fill="none" d="M756.015 459.0625 L756.0504 458.9689 L756.951 455.4661 L757.5056 451.8321 L757.6946 448.0899 L757.5056 444.3478 L756.951 440.7137 L756.0491 437.2062 L754.8184 433.8435 L753.2772 430.6442 L751.4438 427.6265 L749.3369 424.8089 L746.9747 422.2098 L744.3755 419.8476 L741.558 417.7406 L738.5403 415.9073 L735.3409 414.3661 L731.9783 413.1354 L728.4707 412.2335 L724.8367 411.6789 L721.0945 411.4899 L717.3524 411.6789 L713.7184 412.2335 L710.2108 413.1354 L706.8482 414.3661 L703.6488 415.9073 L700.6312 417.7406 L697.8135 419.8476 L695.2145 422.2098 L692.8522 424.8089 L690.7452 427.6265 L688.912 430.6442 L687.3708 433.8436 L686.14 437.2062 L685.2382 440.7138 L684.6835 444.3478 L684.4946 448.0899 L684.6835 451.8321 L684.7216 452.0815 L684.752 452.1767" clip-path="url(#clipPath2)"/>
      <path d="M753.1898 466.5471 C751.123 465.7669 750.08 463.459 750.8602 461.3922 C751.6403 459.3254 753.9482 458.2823 756.015 459.0625 C758.0818 459.8427 759.1248 462.1505 758.3447 464.2173 C757.5646 466.2841 755.2567 467.3272 753.1898 466.5471 Z" stroke="none" clip-path="url(#clipPath2)"/>
      <path d="M687.577 462.8078 L690.2939 449.6693 L678.6964 452.7512 Z" stroke="none" clip-path="url(#clipPath2)"/>
    </g>
    <g stroke-linecap="butt" transform="matrix(1,0,0,1,-524,-207)" fill="white" text-rendering="geometricPrecision" shape-rendering="geometricPrecision" stroke="white" stroke-miterlimit="1.45">
      <rect x="687.9735" width="66.2422" height="23.6016" y="420.7267" clip-path="url(#clipPath2)" stroke="none"/>
    </g>
    <g stroke-linecap="butt" font-size="16px" transform="matrix(1,0,0,1,-524,-207)" fill="navy" text-rendering="geometricPrecision" font-family="sans-serif" shape-rendering="geometricPrecision" stroke="navy" stroke-miterlimit="1.45">
      <text x="689.9735" xml:space="preserve" y="438.8126" clip-path="url(#clipPath2)" stroke="none">cito:cites</text>
      <path fill="none" d="M640.8952 484.6899 L604.067 484.6899 L604.067 402.1214" clip-path="url(#clipPath2)"/>
      <path d="M648.8952 484.6899 C648.8952 486.8991 647.1044 488.6899 644.8952 488.6899 C642.686 488.6899 640.8952 486.8991 640.8952 484.6899 C640.8952 482.4808 642.686 480.6899 644.8952 480.6899 C647.1044 480.6899 648.8952 482.4808 648.8952 484.6899 Z" stroke="none" clip-path="url(#clipPath2)"/>
      <path d="M604.067 391.1214 L598.067 403.1214 L610.067 403.1214 Z" stroke="none" clip-path="url(#clipPath2)"/>
    </g>
    <g stroke-linecap="butt" transform="matrix(1,0,0,1,-524,-207)" fill="white" text-rendering="geometricPrecision" shape-rendering="geometricPrecision" stroke="white" stroke-miterlimit="1.45">
      <rect x="546.4967" width="115.1406" height="23.6016" y="430.68" clip-path="url(#clipPath2)" stroke="none"/>
    </g>
    <g stroke-linecap="butt" font-size="16px" transform="matrix(1,0,0,1,-524,-207)" fill="navy" text-rendering="geometricPrecision" font-family="sans-serif" shape-rendering="geometricPrecision" stroke="navy" stroke-miterlimit="1.45">
      <text x="548.4966" xml:space="preserve" y="448.766" clip-path="url(#clipPath2)" stroke="none">dcterms:creator</text>
      <path fill="none" d="M777.9101 461.1713 L949.0872 390.313" clip-path="url(#clipPath2)"/>
      <path d="M770.5184 464.231 C769.6735 462.1899 770.6432 459.8502 772.6843 459.0053 C774.7255 458.1604 777.0652 459.1301 777.9101 461.1713 C778.755 463.2125 777.7853 465.5521 775.7441 466.397 C773.7029 467.242 771.3633 466.2722 770.5184 464.231 Z" stroke="none" clip-path="url(#clipPath2)"/>
      <path d="M959.2508 386.1057 L945.8683 385.1516 L950.4581 396.2392 Z" stroke="none" clip-path="url(#clipPath2)"/>
    </g>
    <g stroke-linecap="butt" transform="matrix(1,0,0,1,-524,-207)" fill="white" text-rendering="geometricPrecision" shape-rendering="geometricPrecision" stroke="white" stroke-miterlimit="1.45">
      <rect x="771.1355" width="204.125" height="23.6016" y="409.9263" clip-path="url(#clipPath2)" stroke="none"/>
    </g>
    <g stroke-linecap="butt" font-size="16px" transform="matrix(1,0,0,1,-524,-207)" fill="navy" text-rendering="geometricPrecision" font-family="sans-serif" shape-rendering="geometricPrecision" stroke="navy" stroke-miterlimit="1.45">
      <text x="773.1354" xml:space="preserve" y="428.0123" clip-path="url(#clipPath2)" stroke="none">fabio:hasPlaceOfPublication</text>
    </g>
    <g stroke-linecap="butt" transform="matrix(1,0,0,1,-524,-207)" fill="green" text-rendering="geometricPrecision" shape-rendering="geometricPrecision" stroke="green" stroke-miterlimit="1.45">
      <path fill="none" d="M780.5244 508.148 L944.6223 572.9206" clip-path="url(#clipPath2)"/>
    </g>
    <g stroke-linecap="butt" transform="matrix(1,0,0,1,-524,-207)" fill-opacity="0" fill="rgb(0,0,0)" text-rendering="geometricPrecision" shape-rendering="geometricPrecision" stroke="rgb(0,0,0)" stroke-opacity="0" stroke-miterlimit="1.45">
      <path d="M773.0831 505.2108 C773.8942 503.1559 776.2175 502.1477 778.2724 502.9588 C780.3273 503.7699 781.3355 506.0932 780.5244 508.148 C779.7133 510.2029 777.39 511.2112 775.3351 510.4001 C773.2803 509.589 772.272 507.2656 773.0831 505.2108 Z" stroke="none" clip-path="url(#clipPath2)"/>
    </g>
    <g stroke-linecap="butt" transform="matrix(1,0,0,1,-524,-207)" fill="green" text-rendering="geometricPrecision" shape-rendering="geometricPrecision" stroke="green" stroke-miterlimit="1.45">
      <path fill="none" d="M773.0831 505.2108 C773.8942 503.1559 776.2175 502.1477 778.2724 502.9588 C780.3273 503.7699 781.3355 506.0932 780.5244 508.148 C779.7133 510.2029 777.39 511.2112 775.3351 510.4001 C773.2803 509.589 772.272 507.2656 773.0831 505.2108 Z" clip-path="url(#clipPath2)"/>
      <path fill="white" d="M958.5747 578.4279 L945.8951 566.9725 L941.4892 578.1344 Z" clip-path="url(#clipPath2)" stroke="none"/>
      <path fill="none" d="M958.5747 578.4279 L945.8951 566.9725 L941.4892 578.1344 Z" clip-path="url(#clipPath2)"/>
      <rect x="779.7438" y="531.7627" clip-path="url(#clipPath2)" fill="white" width="181.0078" height="23.6016" stroke="none"/>
      <text x="781.7438" font-size="16px" y="549.8487" clip-path="url(#clipPath2)" font-family="sans-serif" stroke="none" xml:space="preserve">fabio:hasPublicationYear</text>
      <path fill="none" d="M801.3145 482.7598 L939.5013 479.435" clip-path="url(#clipPath2)"/>
    </g>
    <g stroke-linecap="butt" transform="matrix(1,0,0,1,-524,-207)" fill-opacity="0" fill="rgb(0,0,0)" text-rendering="geometricPrecision" shape-rendering="geometricPrecision" stroke="rgb(0,0,0)" stroke-opacity="0" stroke-miterlimit="1.45">
      <path d="M793.3168 482.9523 C793.2637 480.7438 795.0109 478.9103 797.2194 478.8572 C799.428 478.8041 801.2614 480.5513 801.3145 482.7598 C801.3677 484.9683 799.6204 486.8018 797.4119 486.8549 C795.2034 486.908 793.37 485.1608 793.3168 482.9523 Z" stroke="none" clip-path="url(#clipPath2)"/>
    </g>
    <g stroke-linecap="butt" transform="matrix(1,0,0,1,-524,-207)" fill="green" text-rendering="geometricPrecision" shape-rendering="geometricPrecision" stroke="green" stroke-miterlimit="1.45">
      <path fill="none" d="M793.3168 482.9523 C793.2637 480.7438 795.0109 478.9103 797.2194 478.8572 C799.428 478.8041 801.2614 480.5513 801.3145 482.7598 C801.3677 484.9683 799.6204 486.8018 797.4119 486.8549 C795.2034 486.908 793.37 485.1608 793.3168 482.9523 Z" clip-path="url(#clipPath2)"/>
      <path fill="white" d="M954.497 479.0742 L938.3573 473.4608 L938.6459 485.4573 Z" clip-path="url(#clipPath2)" stroke="none"/>
      <path fill="none" d="M954.497 479.0742 L938.3573 473.4608 L938.6459 485.4573 Z" clip-path="url(#clipPath2)"/>
      <rect x="828.3689" y="469.2225" clip-path="url(#clipPath2)" fill="white" width="90.2422" height="23.6016" stroke="none"/>
      <text x="830.369" font-size="16px" y="487.3084" clip-path="url(#clipPath2)" font-family="sans-serif" stroke="none" xml:space="preserve">dcterms:title</text>
      <path fill="none" d="M660.0458 508.1143 L619.0698 523.8368 L619.0698 613.3962" clip-path="url(#clipPath2)" stroke="navy"/>
      <path fill="navy" d="M667.5148 505.2484 C668.3063 507.3109 667.2758 509.6245 665.2133 510.4159 C663.1508 511.2073 660.8372 510.1768 660.0458 508.1143 C659.2544 506.0518 660.2849 503.7382 662.3474 502.9468 C664.4099 502.1555 666.7234 503.1859 667.5148 505.2484 Z" clip-path="url(#clipPath2)" stroke="none"/>
      <path fill="navy" d="M619.0698 624.3962 L625.0698 612.3962 L613.0698 612.3962 Z" clip-path="url(#clipPath2)" stroke="none"/>
      <rect x="558.8237" y="557.7487" clip-path="url(#clipPath2)" fill="white" width="120.4922" height="23.6016" stroke="none"/>
    </g>
    <g stroke-linecap="butt" font-size="16px" transform="matrix(1,0,0,1,-524,-207)" fill="navy" text-rendering="geometricPrecision" font-family="sans-serif" shape-rendering="geometricPrecision" stroke="navy" stroke-miterlimit="1.45">
      <text x="560.8237" xml:space="preserve" y="575.8346" clip-path="url(#clipPath2)" stroke="none">frbr:embodiment</text>
    </g>
  </g>
</svg>
